<svg version="1.1" xmlns="http://www.w3.org/2000/svg" xmlns:xlink="http://www.w3.org/1999/xlink" width="203" height="204"><defs/><g><path fill="rgb(0,0,0)" stroke="none" paint-order="stroke fill markers" fill-rule="evenodd" d=" M 201.41282653808594 59.975225269794464 C 200.34539794921875 58.7780636548996 174.94378662109375 30.66243064403534 146.59410095214844 29.67937195301056 C 131.61996459960938 29.167957484722137 121.48728942871094 32.17601668834686 115.35554504394531 35.04063272476196 C 113.68096923828125 30.72942227125168 107.28150939941406 18.352960467338562 86.31623840332031 7.739131391048431 C 78.78289794921875 3.928910195827484 69.54232788085938 1.9963851571083069 58.83660888671875 1.9963851571083069 C 40.470672607421875 1.9963851571083069 24.327865600585938 7.602445304393768 23.646942138671875 7.838557004928589 C 23.013702392578125 8.062699019908905 22.574554443359375 8.6476691365242 22.5435791015625 9.3162339925766 C 22.507797241210938 9.984798848628998 22.88690185546875 10.608766973018646 23.492294311523438 10.891212940216064 C 24.492660522460938 11.36150574684143 48.10868835449219 22.366666316986084 58.69248962402344 22.366666316986084 C 59.32038879394531 22.366666316986084 59.903656005859375 22.32689607143402 60.43389892578125 22.253726541996002 C 63.70225524902344 21.78478515148163 66.79399108886719 21.133402585983276 69.45130920410156 20.471401751041412 C 69.45130920410156 20.471401751041412 65.83123779296875 23.27616935968399 65.83123779296875 23.27616935968399 C 65.37828063964844 23.626765310764313 65.14321899414062 24.1877960562706 65.19837951660156 24.750371277332306 C 65.25849914550781 25.318159103393555 65.60670471191406 25.815866351127625 66.12321472167969 26.067229747772217 C 66.12321472167969 26.067229747772217 74.27423095703125 30.036531925201416 74.27423095703125 30.036531925201416 C 71.709228515625 29.805825889110565 69.07395935058594 29.668946743011475 66.3839111328125 29.622805535793304 C 66.3839111328125 29.622805535793304 65.60670471191406 29.61624151468277 65.60670471191406 29.61624151468277 C 33.752227783203125 29.61624151468277 3.836151123046875 59.54759860038757 2.5785980224609375 60.82314234972 C 2.1049652099609375 61.29884082078934 1.9679412841796875 62.01373994350433 2.23046875 62.63268852233887 C 2.497802734375 63.246617555618286 3.0417022705078125 63.6877583861351 3.7796173095703125 63.6315780878067 C 5.17449951171875 63.610534608364105 37.99317932128906 63.06012213230133 47.07597351074219 56.910599648952484 C 50.53620910644531 54.567437171936035 53.66731262207031 52.08778166770935 56.21186828613281 49.92609506845474 C 56.21186828613281 49.92609506845474 53.435760498046875 55.55570846796036 53.435760498046875 55.55570846796036 C 53.18170166015625 56.06557846069336 53.21435546875 56.66927534341812 53.51655578613281 57.156750440597534 C 53.82188415527344 57.64229494333267 54.35205078125 57.93651753664017 54.92478942871094 57.93651753664017 C 54.92478942871094 57.93651753664017 71.82588195800781 57.93651753664017 71.82588195800781 57.93651753664017 C 72.40243530273438 57.93651753664017 72.93580627441406 57.63920599222183 73.2344970703125 57.1480627655983 C 73.2344970703125 57.1480627655983 75.34974670410156 53.72608411312103 75.34974670410156 53.72608411312103 C 75.34974670410156 53.72608411312103 75.14207458496094 55.61073040962219 75.14207458496094 55.61073040962219 C 75.0545654296875 56.42833715677261 75.581298828125 57.18763995170593 76.37925720214844 57.391317665576935 C 76.61080932617188 57.4507799744606 82.08192443847656 58.82266038656235 89.54171752929688 58.82266038656235 C 89.59481811523438 58.82266038656235 89.64646911621094 58.82266038656235 89.7030029296875 58.818992257118225 C 78.23899841308594 65.17933565378189 68.171630859375 74.35583716630936 59.35975646972656 84.95036029815674 C 59.34602355957031 84.95750349760056 59.300018310546875 84.97951227426529 59.292999267578125 84.98298734426498 C 59.292999267578125 84.98298734426498 59.306732177734375 85.01040178537369 59.306732177734375 85.01040178537369 C 46.11322021484375 100.89108556509018 35.75425720214844 119.9954759478569 27.951446533203125 137.90482836961746 C 27.908645629882812 137.93513870239258 27.855239868164062 137.9731714129448 27.848526000976562 137.97973543405533 C 27.848526000976562 137.97973543405533 27.894912719726562 138.037846326828 27.894912719726562 138.037846326828 C 14.915786743164062 167.85008573532104 8.94189453125 194.22779762744904 8.442550659179688 196.4748165011406 C 8.28485107421875 197.19319069385529 8.629852294921875 197.93897932767868 9.28338623046875 198.28764468431473 C 13.920761108398438 200.7503109574318 19.06793212890625 202.00905853509903 24.585433959960938 202.00905853509903 C 33.90290832519531 202.00905853509903 40.98680114746094 198.45193827152252 41.28900146484375 198.3015449643135 C 41.82939147949219 198.02431160211563 42.17759704589844 197.47389912605286 42.19132995605469 196.86479657888412 C 43.71659851074219 123.19678765535355 96.03532409667969 64.95500057935715 102.50192260742188 58.04250717163086 C 107.73797607421875 71.35801011323929 119.11622619628906 79.93641346693039 119.62396240234375 80.31094878911972 C 120.28276062011719 80.80151283740997 121.2093505859375 80.73510038852692 121.79261779785156 80.1499372124672 C 121.79261779785156 80.1499372124672 123.13096618652344 78.80759489536285 123.13096618652344 78.80759489536285 C 123.13096618652344 78.80759489536285 121.79261779785156 82.59735178947449 121.79261779785156 82.59735178947449 C 121.59371948242188 83.13772517442703 121.70335388183594 83.73968452215195 122.06033325195312 84.18777549266815 C 122.06033325195312 84.18777549266815 132.67686462402344 97.27604746818542 132.67686462402344 97.27604746818542 C 133.03704833984375 97.72066336870193 133.5928497314453 97.94480538368225 134.1694793701172 97.87955129146576 C 134.73550415039062 97.80580258369446 135.22950744628906 97.45173156261444 135.46983337402344 96.93047106266022 C 135.46983337402344 96.93047106266022 138.12547302246094 91.23869252204895 138.12547302246094 91.23869252204895 C 138.0330810546875 94.56877487897873 138.06398010253906 98.55525934696198 138.4139404296875 102.71607649326324 C 139.3197784423828 113.6131237745285 159.5198211669922 139.4164838194847 160.3775177001953 140.50398766994476 C 160.79286193847656 141.02408981323242 161.4790496826172 141.25672644376755 162.13433837890625 141.07505750656128 C 162.78298950195312 140.8870176076889 163.24960327148438 140.332937002182 163.3321533203125 139.67267370224 C 163.53807067871094 137.87027072906494 168.1599578857422 95.19969314336777 147.57546997070312 70.60198932886124 C 142.18133544921875 64.16191238164902 136.51620483398438 58.83250641822815 130.6624755859375 54.697366178035736 C 134.19686889648438 54.50758874416351 136.49232482910156 54.04945868253708 136.61599731445312 54.023588716983795 C 137.4220428466797 53.85987430810928 137.99195861816406 53.127406775951385 137.9403076171875 52.312116742134094 C 137.9403076171875 52.312116742134094 137.8921661376953 51.52655786275864 137.8921661376953 51.52655786275864 C 137.8921661376953 51.52655786275864 139.17222595214844 53.852731108665466 139.17222595214844 53.852731108665466 C 139.4466552734375 54.35700237751007 139.9649200439453 54.68385201692581 140.54116821289062 54.71107339859009 C 140.54116821289062 54.71107339859009 155.37828063964844 55.46014404296875 155.37828063964844 55.46014404296875 C 155.41268920898438 55.46014404296875 155.44015502929688 55.46014404296875 155.46754455566406 55.46014404296875 C 155.481201171875 55.46381217241287 155.4879150390625 55.46381217241287 155.49493408203125 55.46014404296875 C 156.41793823242188 55.46014404296875 157.1589813232422 54.72188472747803 157.1589813232422 53.808134377002716 C 157.1589813232422 53.46101349592209 157.0528564453125 53.141307055950165 156.8708953857422 52.87604337930679 C 156.8708953857422 52.87604337930679 155.18609619140625 48.94940733909607 155.18609619140625 48.94940733909607 C 157.18995666503906 50.8085697889328 159.5918426513672 52.87604337930679 162.22039794921875 54.8614667057991 C 169.97506713867188 60.70035654306412 198.8461456298828 62.6448512673378 200.0643310546875 62.72149586677551 C 200.7540283203125 62.735203087329865 201.36827087402344 62.39812129735947 201.66307067871094 61.79635500907898 C 201.9581756591797 61.19787073135376 201.8587646484375 60.479689598083496 201.41282653808594 59.975225269794464 Z M 45.76860046386719 110.60989105701447 C 50.4659423828125 102.63885271549225 55.69535827636719 94.92612791061401 61.45989990234375 87.85416740179062 C 62.48933410644531 87.4558857679367 64.89625549316406 86.73770463466644 67.13510131835938 87.7037740945816 C 69.16322326660156 88.5794917345047 70.67300415039062 90.71202635765076 71.67474365234375 93.95639032125473 C 67.67236328125 100.49956101179123 63.631988525390625 107.74392360448837 59.81614685058594 115.5767313838005 C 55.87030029296875 111.16783285140991 50.210205078125 110.25427556037903 45.76860046386719 110.60989105701447 Z M 43.53456115722656 114.49579155445099 C 46.30548095703125 113.88012498617172 53.91603088378906 112.90536785125732 58.1331787109375 119.12690150737762 C 55.28001403808594 125.23221337795258 52.58821105957031 131.67962658405304 50.16412353515625 138.41759425401688 C 43.49519348144531 133.51272600889206 37.155853271484375 134.06680661439896 32.95075988769531 135.46243333816528 C 36.10246276855469 128.51248639822006 39.61968994140625 121.44264954328537 43.53456115722656 114.49579155445099 Z M 20.153594970703125 168.04488271474838 C 23.101211547851562 166.6973277926445 33.86003112792969 162.4695190191269 42.02653503417969 167.87383204698563 C 41.186004638671875 172.22095155715942 40.49806213378906 176.6437503695488 39.97804260253906 181.13450610637665 C 29.970794677734375 177.60460722446442 20.776611328125 179.4276675581932 16.077438354492188 180.88468718528748 C 17.20635986328125 177.0883662700653 18.565078735351562 172.75784987211227 20.153594970703125 168.04488271474838 Z M 21.665206909179688 163.6529734134674 C 24.204498291015625 156.41536790132523 27.27197265625 148.42907786369324 30.852752685546875 140.18235063552856 C 33.30247497558594 138.69154560565948 40.7760009765625 135.24369698762894 48.93052673339844 141.90617841482162 C 46.50605773925781 149.03431922197342 44.408050537109375 156.48390400409698 42.7608642578125 164.18987172842026 C 35.231109619140625 159.96978533267975 26.583953857421875 161.90173119306564 21.665206909179688 163.6529734134674 Z M 24.5955810546875 198.69113892316818 C 20.076690673828125 198.69113892316818 15.8388671875 197.75750344991684 11.98541259765625 195.93444311618805 C 12.428146362304688 194.08744341135025 13.390518188476562 190.2428576350212 14.876419067382812 185.01326340436935 C 17.424179077148438 184.0043347477913 28.1331787109375 180.36149609088898 39.59893798828125 184.74645525217056 C 39.25775146484375 188.3753936290741 39.01216125488281 192.0385035276413 38.90916442871094 195.74987828731537 C 36.82977294921875 196.632159948349 31.28839111328125 198.69113892316818 24.5955810546875 198.69113892316818 Z M 74.00468444824219 90.21451216936111 C 72.68037414550781 87.43040192127228 70.85649108886719 85.4944018125534 68.53005981445312 84.4922302365303 C 67.29989624023438 83.96382653713226 66.07682800292969 83.76362389326096 64.93241882324219 83.73968452215195 C 74.38729858398438 73.00152516365051 85.20974731445312 64.08295106887817 97.50054931640625 58.64118450880051 C 92.806640625 63.958234667778015 83.68447875976562 74.96300911903381 74.00468444824219 90.21451216936111 Z M 164.2172393798828 52.22466081380844 C 157.00120544433594 46.78791379928589 151.48721313476562 40.523520946502686 151.43243408203125 40.463672518730164 C 150.8969268798828 39.84993654489517 149.9911651611328 39.71267127990723 149.29788208007812 40.14724808931351 C 148.6116943359375 40.58163183927536 148.33726501464844 41.45387440919876 148.6598358154297 42.19946998357773 C 148.6598358154297 42.19946998357773 152.89414978027344 52.024265110492706 152.89414978027344 52.024265110492706 C 152.89414978027344 52.024265110492706 141.6427001953125 51.45647728443146 141.6427001953125 51.45647728443146 C 141.6427001953125 51.45647728443146 137.2779998779297 43.5132395029068 137.2779998779297 43.5132395029068 C 136.90415954589844 42.837338387966156 136.11497497558594 42.5054692029953 135.36691284179688 42.71957212686539 C 134.6223602294922 42.931165277957916 134.12484741210938 43.63235718011856 134.1694793701172 44.39706563949585 C 134.1694793701172 44.39706563949585 134.54331970214844 51.00877243280411 134.54331970214844 51.00877243280411 C 132.7144775390625 51.262066423892975 129.28651428222656 51.60725671052933 125.17587280273438 51.41226667165756 C 124.40042114257812 51.35936838388443 123.72789001464844 51.863639652729034 123.50129699707031 52.592052936553955 C 123.28172302246094 53.31757032871246 123.59056091308594 54.10255002975464 124.24935913085938 54.48731750249863 C 131.4449462890625 58.7184082865715 138.43789672851562 64.84746646881104 145.02244567871094 72.71734166145325 C 161.01243591308594 91.8219251036644 160.96116638183594 123.58001065254211 160.346923828125 135.02457451820374 C 153.6660919189453 126.09403073787689 142.3116455078125 109.60115545988083 141.7147216796875 102.43536806106567 C 140.85702514648438 92.20167303085327 142.00982666015625 82.77168446779251 142.016845703125 82.67766451835632 C 142.1163330078125 81.87222051620483 141.61172485351562 81.10944265127182 140.8296356201172 80.88549369573593 C 140.67849731445312 80.83935248851776 140.5207977294922 80.81869512796402 140.37667846679688 80.81869512796402 C 139.74176025390625 80.81869512796402 139.14834594726562 81.18280524015427 138.8668975830078 81.77472549676895 C 138.8668975830078 81.77472549676895 133.57919311523438 93.12179434299469 133.57919311523438 93.12179434299469 C 133.57919311523438 93.12179434299469 125.21699523925781 82.81126165390015 125.21699523925781 82.81126165390015 C 125.21699523925781 82.81126165390015 128.69622802734375 72.98627346754074 128.69622802734375 72.98627346754074 C 128.95379638671875 72.25399899482727 128.6758575439453 71.44546604156494 128.02056884765625 71.03309106826782 C 127.36489868164062 70.6263148188591 126.5072021484375 70.71994864940643 125.96505737304688 71.26418322324753 C 125.96505737304688 71.26418322324753 120.48196411132812 76.74205189943314 120.48196411132812 76.74205189943314 C 117.35940551757812 74.11818099021912 108.5067138671875 65.94365799427032 104.84864807128906 54.79486119747162 C 104.57421875 53.95177060365677 103.68211364746094 53.46777057647705 102.81076049804688 53.722802102565765 C 101.802001953125 54.01335656642914 100.68994140625 54.276689648628235 99.33465576171875 54.55025488138199 C 99.111572265625 54.598133623600006 98.90565490722656 54.6908021569252 98.72750854492188 54.8087614774704 C 98.52159118652344 54.76416474580765 98.31575012207031 54.76107579469681 98.10456848144531 54.798143208026886 C 95.38880920410156 55.26148587465286 92.50306701660156 55.49605309963226 89.53157043457031 55.49605309963226 C 84.6468505859375 55.49605309963226 80.61357116699219 54.85837775468826 78.58895874023438 54.466660141944885 C 78.58895874023438 54.466660141944885 79.41926574707031 46.784245669841766 79.41926574707031 46.784245669841766 C 79.50357055664062 46.01490378379822 79.04359436035156 45.289772510528564 78.30926513671875 45.04033970832825 C 77.57493591308594 44.79554033279419 76.770263671875 45.082812786102295 76.35850524902344 45.74114549160004 C 76.35850524902344 45.74114549160004 70.88388061523438 54.60855883359909 70.88388061523438 54.60855883359909 C 70.88388061523438 54.60855883359909 57.584320068359375 54.60855883359909 57.584320068359375 54.60855883359909 C 57.584320068359375 54.60855883359909 63.118988037109375 43.374236702919006 63.118988037109375 43.374236702919006 C 63.480926513671875 42.645823419094086 63.25288391113281 41.76180422306061 62.58531188964844 41.29633790254593 C 61.92155456542969 40.82797569036484 61.00694274902344 40.9183275103569 60.437408447265625 41.50020867586136 C 60.37202453613281 41.57028925418854 53.737884521484375 48.38837659358978 45.21623229980469 54.15699279308319 C 39.247222900390625 58.19637554883957 19.23760986328125 59.76112234592438 8.070465087890625 60.188942074775696 C 16.53558349609375 52.59552800655365 40.877166748046875 32.90442997217178 65.60319519042969 32.90442997217178 C 65.60319519042969 32.90442997217178 66.32386779785156 32.9115731716156 66.32386779785156 32.9115731716156 C 72.98570251464844 33.01775586605072 79.26850891113281 33.72377425432205 84.99856567382812 35.02016842365265 C 85.75685119628906 35.191219091415405 86.53756713867188 34.80645161867142 86.8636474609375 34.100433230400085 C 87.16722106933594 33.45175349712372 87.01470947265625 32.69785636663437 86.50666809082031 32.2121188044548 C 86.50666809082031 32.2121188044548 90.05120849609375 26.6008460521698 90.05120849609375 26.6008460521698 C 90.46304321289062 25.94927042722702 90.36714172363281 25.094403207302094 89.81965637207031 24.54862415790558 C 89.26736450195312 24.004968762397766 88.41455078125 23.91094881296158 87.76101684570312 24.32158625125885 C 87.76101684570312 24.32158625125885 80.08683776855469 29.167957484722137 80.08683776855469 29.167957484722137 C 80.08683776855469 29.167957484722137 69.96430969238281 24.23914986848831 69.96430969238281 24.23914986848831 C 69.96430969238281 24.23914986848831 78.4346923828125 17.678796887397766 78.4346923828125 17.678796887397766 C 79.08120727539062 17.179545164108276 79.26499938964844 16.28838276863098 78.86689758300781 15.571746110916138 C 78.47406005859375 14.860515117645264 77.61285400390625 14.537333607673645 76.85113525390625 14.817848980426788 C 76.77384948730469 14.850282967090607 68.90565490722656 17.6755148768425 59.957061767578125 18.958201825618744 C 59.565673828125 19.018050253391266 59.141937255859375 19.035232543945312 58.68409729003906 19.035232543945312 C 51.29624938964844 19.035232543945312 36.10948181152344 12.818718433380127 28.884750366210938 9.663161814212799 C 34.822784423828125 7.995900452136993 46.41542053222656 5.273376166820526 58.82463073730469 5.273376166820526 C 69.0072021484375 5.273376166820526 77.74674987792969 7.087941884994507 84.80462646484375 10.660313844680786 C 108.65083312988281 22.73077642917633 112.61033630371094 37.22625869512558 112.64482116699219 37.36641985177994 C 112.668701171875 37.45561331510544 112.74072265625 37.66083550453186 112.78215026855469 37.749642848968506 C 112.78215026855469 37.749642848968506 112.87103271484375 37.965097188949585 112.87103271484375 37.965097188949585 C 113.049560546875 38.38944184780121 113.39631652832031 38.722855508327484 113.83203125 38.88000589609146 C 114.26423645019531 39.03715628385544 114.74801635742188 39.00337088108063 115.16336059570312 38.78926795721054 C 120.68788146972656 35.895886063575745 130.7552490234375 32.403633773326874 146.4602813720703 32.95076423883438 C 167.95053100585938 33.699641823768616 188.40814208984375 51.68756943941116 195.89501953125 59.04622322320938 C 186.0609588623047 58.17089170217514 169.15147399902344 55.9408620595932 164.2172393798828 52.22466081380844 Z"/></g></svg>